<svg id="Layer_1" enable-background="new 0 0 32 32" height="512" viewBox="0 0 32 32" width="512" xmlns="http://www.w3.org/2000/svg"><g><path d="m19.8 1c-6.1 0-11.1 5-11.1 11.2 0 2.7 1 5.2 2.6 7.2l-1.8 1.8c-.9-.3-2-.2-2.7.5l-5.1 5.1c-1 1-1 2.6 0 3.6.5.3 1.2.6 1.8.6s1.3-.3 1.8-.7l5.1-5.1c.5-.5.7-1.1.7-1.8 0-.3-.1-.6-.2-.9l1.8-1.8c1.9 1.6 4.4 2.6 7.1 2.6 6.2 0 11.2-5 11.2-11.2 0-6.1-5-11.1-11.2-11.1zm-10.9 22.8-5.1 5.1c0 .1-.2.1-.3.1s-.2 0-.4-.2-.2-.5 0-.7l5.1-5.1c.1-.1.3-.1.4-.1s.2 0 .4.2c.1.1.1.3.1.4s0 .2-.2.3zm10.9-2.5c-5.1 0-9.2-4.1-9.2-9.2s4.1-9.2 9.2-9.2 9.2 4.2 9.2 9.3c0 5-4.1 9.1-9.2 9.1z"/><path d="m19.8 5.1c-1.9 0-3.7.7-5 2.1-1.3 1.3-2.1 3.1-2.1 5 0 .6.4 1 1 1s1-.4 1-1c0-1.4.5-2.6 1.5-3.6s2.2-1.5 3.6-1.5c.6 0 1-.4 1-1s-.4-1-1-1z"/></g></svg>